<svg id="Pictograms" xmlns="http://www.w3.org/2000/svg" viewBox="0 0 240 240"><defs><style>.cls-1{fill:#fff;}.cls-2{fill:#970a82;}.cls-3,.cls-4,.cls-5{fill:#f0ab00;}.cls-4{opacity:0.7;}.cls-5{opacity:0.4;}</style></defs><title>_purple_Alert_R_neg</title><path class="cls-1" d="M215.76,193H24.64l47.84-79.73L120.2,31Zm-184-4h177L120.23,39,75.93,115.3Z"/><polygon class="cls-2" points="128.6 135.34 113.6 110.51 98.6 85.6 83.6 60.64 68.6 85.66 53.6 110.67 38.6 135.34 23.6 160 143.6 160 128.6 135.34"/><polygon class="cls-3" points="98.6 85.68 83.6 60.68 68.6 85.68 98.6 85.68"/><polygon class="cls-4" points="53.6 110.68 113.6 110.68 98.6 85.68 68.6 85.68 53.6 110.68"/><polygon class="cls-5" points="38.6 135.68 128.6 135.68 113.6 110.68 53.6 110.68 38.6 135.68"/><path class="cls-1" d="M79.75,143.39v-7.69h7.69v7.69Zm6.41-14.1,1.28-35.9H79.75L81,129.28Z"/></svg>