<svg id="Pictograms" xmlns="http://www.w3.org/2000/svg" viewBox="0 0 240 240"><defs><style>.cls-1{fill:#008fd3;}.cls-2,.cls-3,.cls-4{fill:#f0ab00;}.cls-3{opacity:0.7;}.cls-4{opacity:0.4;}.cls-5{fill:#fff;}</style></defs><title>_blue_ElectricalCord_R_neg</title><rect class="cls-1" x="134.33" y="170.83" width="96" height="24" transform="translate(181.97 441.03) rotate(-135)"/><rect class="cls-2" x="195.78" y="196.28" width="24" height="24" transform="translate(207.43 502.48) rotate(-135)"/><rect class="cls-3" x="178.81" y="179.31" width="24" height="24" transform="translate(190.46 461.51) rotate(-135)"/><rect class="cls-4" x="161.84" y="162.34" width="24" height="24" transform="translate(173.49 420.54) rotate(-135)"/><path class="cls-5" d="M158.17,119.07l.13-14.86.14-15.55a23.82,23.82,0,0,0-6.17-15.09l-24-24a10,10,0,0,0-14.14,0l-9.55,9.55L68.12,22.65l-14.93,8.4,39.7,39.69L70.6,93,30.91,53.33l-8.4,14.93,36.43,36.43-9.9,9.9a10,10,0,0,0,0,14.14l24,24a23.86,23.86,0,0,0,15,6.17h.12L104,158.8l14.58-.13L128.94,169l39.6-39.6ZM67.43,27.63l34.28,34.28-6,6-36-36Zm-40,40,4.33-7.69,36,36-6,6Zm22.64,54.08a6,6,0,0,1,1.75-4.24l9.9-9.9L73.43,95.85h0l28.11-28.11,5.83-5.83h0l9.55-9.55a6,6,0,0,1,8.49,0l7.07,7.07L58.94,133l-7.07-7.07A6,6,0,0,1,50.12,121.66ZM104,154.8l-15.83.14a19.91,19.91,0,0,1-12.22-5L61.76,135.8,135.3,62.26l14.14,14.14a19.92,19.92,0,0,1,5,12.22l-.14,15.55-.14,15.59-34.89,34.89ZM122.58,157l33.94-33.94,6.36,6.36-33.94,33.94Z"/></svg>