<svg id="Pictograms" xmlns="http://www.w3.org/2000/svg" viewBox="0 0 240 240"><defs><style>.cls-1{fill:#970a82;}.cls-2,.cls-3,.cls-4{fill:#f0ab00;}.cls-2{opacity:0.4;}.cls-3{opacity:0.7;}.cls-5{fill:#fff;}</style></defs><title>_purple_Light Bulb_R_neg</title><path class="cls-1" d="M154.64,56A40,40,0,1,0,160,76,40,40,0,0,0,154.64,56Z"/><path class="cls-2" d="M85.36,56A39.8,39.8,0,0,0,80,76h80a39.8,39.8,0,0,0-5.36-20Z"/><path class="cls-3" d="M85.36,96h69.27A39.8,39.8,0,0,0,160,76H80A39.8,39.8,0,0,0,85.36,96Z"/><path class="cls-4" d="M154.64,96H85.36a40,40,0,0,0,69.27,0Z"/><path class="cls-5" d="M156.78,39.6a51.17,51.17,0,0,0-73.56,0A53.92,53.92,0,0,0,68,77.23a52.93,52.93,0,0,0,14.32,36.34c10.41,10.57,16.88,29.08,16.88,48.33v2h41.59v-2c0-19.87,5.83-37.18,16-47.48A52.65,52.65,0,0,0,172,77.23,53.92,53.92,0,0,0,156.78,39.6Zm-2.85,72c-10.54,10.7-16.73,28.21-17.12,48.29H122V124.5h-4v35.4H103.18c-.44-19.54-7.25-38.22-18-49.1A48.92,48.92,0,0,1,72,77.23,49.9,49.9,0,0,1,86.07,42.4a47.17,47.17,0,0,1,67.86,0A49.9,49.9,0,0,1,168,77.23,48.68,48.68,0,0,1,153.93,111.61ZM96,172h48v4H96Zm0,12h48v4H96Zm12,12H96v4h12v16h24V200h12v-4H108Zm20,16H112V200h16Z"/></svg>