<svg id="Pictograms" xmlns="http://www.w3.org/2000/svg" viewBox="0 0 240 240"><defs><style>.cls-1{fill:#e35500;}.cls-2,.cls-3,.cls-4{fill:#f0ab00;}.cls-2{opacity:0.4;}.cls-3{opacity:0.7;}.cls-5{fill:#fff;}</style></defs><title>_orange_SwissArmyKnife_R_neg</title><rect class="cls-1" x="142.99" y="97.3" width="52.76" height="60.3" transform="translate(4.77 261.02) rotate(-76.02)"/><rect class="cls-2" x="135.68" y="118.1" width="52.76" height="15.08" transform="translate(0.99 252.54) rotate(-76.02)"/><rect class="cls-3" x="150.31" y="121.74" width="52.76" height="15.08" transform="translate(8.55 269.5) rotate(-76.02)"/><rect class="cls-4" x="164.94" y="125.38" width="52.76" height="15.08" transform="translate(16.11 286.46) rotate(-76.02)"/><path class="cls-5" d="M216.76,36.77A34,34,0,0,0,170,25.14a34.42,34.42,0,0,0-4.49,3.22,31.4,31.4,0,0,0-24,23.15l-16.68,67-1.69-4.1c-4.54-11-9.23-22.32-11.58-27.33C96.3,54.55,62.51,55.7,62.16,55.71l-2.95.13,56.06,124-10.1-6.79L102,177.77l-9.38-6.31-1.12,1.66c-3.11,4.62-7.67,6.06-11.35,3.58a7.42,7.42,0,0,1-2-10.3l-3.32-2.23a7.42,7.42,0,0,1-12.32-8.29l-3.32-2.23a7.42,7.42,0,0,1-12.32-8.29l-3.32-2.23a7.42,7.42,0,1,1-12.32-8.29l2.17-3.22-9.48-6.38-2.23,3.32,6.16,4.14a11.41,11.41,0,0,0,13.76,16.88A11.42,11.42,0,0,0,53,160.92a11.44,11.44,0,0,0,4.24-.81,11.39,11.39,0,0,0,15.63,10.51,11.54,11.54,0,0,0,.21,2.11A11.35,11.35,0,0,0,77.94,180c5.09,3.43,11.33,2.13,15.7-3.06l6.15,4.14-3.16,4.69,31.26,21h0A33.77,33.77,0,0,0,146.59,219a34.24,34.24,0,0,0,8.28,1,34.08,34.08,0,0,0,33-25.83L220.62,62.53A33.81,33.81,0,0,0,216.76,36.77ZM145.44,52.48a27.41,27.41,0,0,1,14.45-18,34,34,0,0,0-5.33,11.57l-22.37,89.84c-1.36-3.15-3-7-4.74-11.22ZM108,88.78c2.31,4.92,7,16.22,11.51,27.15,4.3,10.41,8.74,21.14,11.13,26.32l-8.83,35.47a34.51,34.51,0,0,0-.86,5L65.39,59.8C73.62,60.37,96.43,64.22,108,88.78Zm-1.72,89.85,12.14,8.17,3.42,7.57a33.87,33.87,0,0,0,1.51,4.53l-21.15-14.21ZM216.73,61.57,184,193.2a30,30,0,0,1-54.89,8.22,30.14,30.14,0,0,1-3.34-7.93l.07,0-.18-.4a29.88,29.88,0,0,1,0-14.38L158.44,47.05a29.82,29.82,0,0,1,8.94-15l.35-.07,0-.2a30.4,30.4,0,0,1,4.41-3.23,29.84,29.84,0,0,1,15.42-4.31,30.24,30.24,0,0,1,7.31.9,30,30,0,0,1,21.89,36.4Z"/></svg>