<svg id="Pictograms" xmlns="http://www.w3.org/2000/svg" viewBox="0 0 240 240"><defs><style>.cls-1{fill:#e35500;}.cls-2,.cls-3,.cls-4{fill:#f0ab00;}.cls-2{opacity:0.4;}.cls-3{opacity:0.7;}.cls-5{fill:#fff;}</style></defs><title>_orange_WarningSign_R_neg</title><polygon class="cls-1" points="150.14 94.81 140.14 77.81 130.14 60.91 120.14 44 110.14 60.94 100.14 77.88 90.14 94.81 80.14 112 160.14 112 150.14 94.81"/><polygon class="cls-2" points="100.14 77.88 140.14 77.88 130.14 60.95 110.14 60.95 100.14 77.88"/><polygon class="cls-3" points="90.14 94.81 150.14 94.81 140.14 77.88 100.14 77.88 90.14 94.81"/><polygon class="cls-4" points="90.14 94.81 80.14 112 160.14 112 150.14 94.81 90.14 94.81"/><path class="cls-5" d="M180.72,121l-59-100A2,2,0,0,0,120,20h0a2,2,0,0,0-1.72,1L88.79,71.8,59.29,121A2,2,0,0,0,61,124h51V232h16V124h51a2,2,0,0,0,1.72-3ZM124,228h-8V124h8Zm4-108H64.53l27.7-46.16L120,26l55.48,94ZM117.58,94.82h5.13V100h-5.13Zm0-28.65h5.13l-.85,24.31h-3.42Z"/></svg>